<svg xmlns="http://www.w3.org/2000/svg" width="40" height="40" viewBox="0 0 40 40">
  <g id="remove_product" transform="translate(-1087 -1316)">
    <rect id="Rectangle_37" data-name="Rectangle 37" width="40" height="40" rx="10" transform="translate(1087 1316)" fill="#dc1759"/>
    <g id="Delete" transform="translate(1095 1324)">
      <path id="Delete-2" data-name="Delete" d="M8.132,21.961A2.916,2.916,0,0,1,5.2,19.134c-.313-2.847-.837-9.577-.846-9.645a.792.792,0,0,1,.19-.558A.708.708,0,0,1,5.069,8.7h13.87a.728.728,0,0,1,.524.234.749.749,0,0,1,.181.558c0,.068-.533,6.809-.838,9.645a2.916,2.916,0,0,1-3,2.827C14.515,21.99,13.25,22,12,22,10.681,22,9.388,21.99,8.132,21.961ZM3.714,7.091A.73.73,0,0,1,3,6.357v-.38a.723.723,0,0,1,.715-.734H6.629A1.283,1.283,0,0,0,7.871,4.228l.153-.682A1.987,1.987,0,0,1,9.935,2h4.129a1.986,1.986,0,0,1,1.9,1.5l.164.73a1.28,1.28,0,0,0,1.241,1.016h2.915A.723.723,0,0,1,21,5.977v.38a.73.73,0,0,1-.713.734Z" fill="#fff"/>
    </g>
  </g>
</svg>
