<svg id="Layer_1" data-name="Layer 1" xmlns="http://www.w3.org/2000/svg" viewBox="0 0 513.94 168.3"><defs><style>.cls-1{fill:#fff;stroke-miterlimit:10;}.cls-2{fill:#192d4d;}</style></defs><title>Wayrem logo.</title><rect class="cls-1" x="0.5" y="0.5" width="512.94" height="167.3"/><polygon class="cls-2" points="494.34 152.54 280.2 152.54 280.2 110.48 284.16 110.48 284.16 148.59 490.39 148.59 490.39 24.97 21.11 24.97 21.11 148.59 85.7 148.59 85.7 112.29 89.66 112.29 89.66 152.54 17.16 152.54 17.16 21.01 494.34 21.01 494.34 152.54"/><polygon class="cls-2" points="250.5 55.18 225.23 92.07 225.23 118.39 215.98 118.39 215.98 92.07 190.71 55.18 200.87 55.18 220.6 84.03 240.36 55.18 250.5 55.18"/><polygon class="cls-2" points="115.34 106.59 115.34 106.94 114.99 106.94 114.81 106.59 115.34 106.59"/><path class="cls-2" d="M59.5,106.09v.35h.38l.17-.35Z" transform="translate(0.5 0.5)"/><polygon class="cls-2" points="124.04 55.18 124.04 118.39 111.21 118.39 87.68 70.44 64.15 118.39 51.32 118.39 51.32 55.18 59.94 55.18 59.94 106.59 60 106.59 60 106.94 60.38 106.94 60.55 106.59 86.28 55.18 89.08 55.18 114.81 106.59 114.99 106.94 115.34 106.94 115.34 55.18 124.04 55.18"/><rect class="cls-2" x="59.94" y="55.18" width="0.06" height="51.41"/><path class="cls-2" d="M166.84,54.68h-4.55l-27.48,63.21h8.84l9-19.67h23.23l9,19.67h8.82Zm-9.72,34,7.16-15.6,7.13,15.6Z" transform="translate(0.5 0.5)"/><polygon class="cls-2" points="334.46 82.69 367.77 82.69 367.77 91.39 334.46 91.39 334.46 110.2 367.77 110.2 367.77 118.9 325.81 118.9 325.81 55.17 367.77 55.17 367.77 63.87 334.46 63.87 334.46 82.69"/><path class="cls-2" d="M291.65,87.2c2.3-.53,3.15-1.32,5.06-2.33a20.51,20.51,0,0,0,4.91-3.58,14.89,14.89,0,0,0,3.14-4.63,13.6,13.6,0,0,0,1.11-5.51,15.19,15.19,0,0,0-1.44-6.61,14.7,14.7,0,0,0-4.31-5.22A21.18,21.18,0,0,0,293,55.9c-2.87-.83-12.14-1.22-15.94-1.22H259.11v63.21h8.64V92.58h16.67l18.66,25.31h11.57Zm-5.24-4.43a22.26,22.26,0,0,1-6.6,1H267.75V62.31c0-.32,16.89-.16,17.92,0,7.43,1.07,13.1,6.26,9.46,13.53A14,14,0,0,1,286.41,82.77Z" transform="translate(0.5 0.5)"/><polygon class="cls-2" points="386.85 118.39 386.85 55.18 399.68 55.18 423.21 103.13 446.74 55.18 459.57 55.18 459.57 118.39 450.95 118.39 450.95 66.98 450.89 66.98 450.89 66.63 450.51 66.63 450.34 66.98 424.61 118.39 421.8 118.39 396.08 66.98 395.9 66.63 395.55 66.63 395.55 118.39 386.85 118.39"/><path class="cls-2" d="M143,141.38h1.82V142a3.79,3.79,0,0,1,1.06-.54,3.5,3.5,0,0,1,1.14-.19,2.52,2.52,0,0,1,1.88.68,2.46,2.46,0,0,1,.66,1.81v5.52h-1.8v-5.4a1.13,1.13,0,0,0-.25-.82,1,1,0,0,0-.7-.24,2.08,2.08,0,0,0-.78.15,2.26,2.26,0,0,0-.63.4,1.86,1.86,0,0,0-.43.57,1.56,1.56,0,0,0-.15.67v4.67H143Z" transform="translate(0.5 0.5)"/><path class="cls-2" d="M153.34,145.79a3.09,3.09,0,0,0,.23.77,3.31,3.31,0,0,0,.4.66,1.89,1.89,0,0,0,.55.47,1.35,1.35,0,0,0,.66.17,1.83,1.83,0,0,0,1.78-1.47h1.7a4,4,0,0,1-.49,1.27,3.83,3.83,0,0,1-.8.94,3.29,3.29,0,0,1-1,.58,3.54,3.54,0,0,1-1.16.2,3.35,3.35,0,0,1-1.54-.34,3.82,3.82,0,0,1-1.92-2.24,5,5,0,0,1-.26-1.61,4.38,4.38,0,0,1,.26-1.5,3.78,3.78,0,0,1,.74-1.26,3.38,3.38,0,0,1,1.17-.87,3.44,3.44,0,0,1,1.53-.33,3.61,3.61,0,0,1,1.49.3,3.27,3.27,0,0,1,1.13.8,3.72,3.72,0,0,1,.72,1.22,4.47,4.47,0,0,1,.25,1.53v.71Zm3.53-1.41a1.85,1.85,0,0,0-.56-1.15,1.69,1.69,0,0,0-1.23-.45,1.6,1.6,0,0,0-.62.13,1.54,1.54,0,0,0-.52.35,1.91,1.91,0,0,0-.37.51,2,2,0,0,0-.21.61Z" transform="translate(0.5 0.5)"/><path class="cls-2" d="M160.79,143.91a2.6,2.6,0,0,1,.35-1.2,2.76,2.76,0,0,1,.75-.84,3.55,3.55,0,0,1,1-.48,4.25,4.25,0,0,1,1.11-.16,5.17,5.17,0,0,1,1.19.14,3,3,0,0,1,1,.43,2.34,2.34,0,0,1,.71.76,2.2,2.2,0,0,1,.27,1.13v3.84a.59.59,0,0,0,0,.23c0,.07.07.1.11.1l.22-.06.51-.14v1.5a6.23,6.23,0,0,1-.62.17,2.76,2.76,0,0,1-.51,0,1.52,1.52,0,0,1-.8-.21,1.33,1.33,0,0,1-.52-.72,3.39,3.39,0,0,1-1.23.73,4.25,4.25,0,0,1-1.26.2,2.94,2.94,0,0,1-1-.17,2.35,2.35,0,0,1-.8-.47,2.21,2.21,0,0,1-.54-.74,2.26,2.26,0,0,1-.2-1,1.72,1.72,0,0,1,.29-1,2.27,2.27,0,0,1,.73-.68,5.52,5.52,0,0,1,1-.46l1.09-.32.62-.18a3.84,3.84,0,0,0,.52-.19,1.39,1.39,0,0,0,.37-.23.38.38,0,0,0,.13-.28.74.74,0,0,0-.36-.7,2.08,2.08,0,0,0-1-.21,1.52,1.52,0,0,0-.88.26,1.24,1.24,0,0,0-.46.87Zm4.57,1.55c-.19.08-.39.16-.61.23a6.56,6.56,0,0,1-.67.21l-.13,0-.57.19a2.48,2.48,0,0,0-.49.22,1.21,1.21,0,0,0-.35.27.57.57,0,0,0-.14.37.82.82,0,0,0,.28.68,1.06,1.06,0,0,0,.61.2,2,2,0,0,0,1.09-.36,3.24,3.24,0,0,0,1-1.08Z" transform="translate(0.5 0.5)"/><path class="cls-2" d="M169.52,141.38h1.81v.36a2.59,2.59,0,0,1,.67-.37,2.24,2.24,0,0,1,.8-.14,2.09,2.09,0,0,1,.38.05,2.79,2.79,0,0,1,.47.14v1.74c-.24-.08-.44-.15-.6-.19l-.28-.08a1.35,1.35,0,0,0-.62.14,1.33,1.33,0,0,0-.45.36,1.68,1.68,0,0,0-.28.53,2.18,2.18,0,0,0-.09.63v4.69h-1.81Z" transform="translate(0.5 0.5)"/><path class="cls-2" d="M176.74,145.79a3.06,3.06,0,0,0,.22.77,3.34,3.34,0,0,0,.41.66,2,2,0,0,0,.54.47,1.41,1.41,0,0,0,.66.17,1.85,1.85,0,0,0,1.79-1.47h1.69a3.94,3.94,0,0,1-.48,1.27,4.1,4.1,0,0,1-.81.94,3.18,3.18,0,0,1-1,.58,3.49,3.49,0,0,1-1.16.2A3.31,3.31,0,0,1,177,149a3.77,3.77,0,0,1-1.18-.91,4.22,4.22,0,0,1-.75-1.33,5,5,0,0,1-.26-1.61,4.38,4.38,0,0,1,.26-1.5,4,4,0,0,1,.75-1.26,3.52,3.52,0,0,1,2.69-1.2,3.57,3.57,0,0,1,1.49.3,3.27,3.27,0,0,1,1.13.8,3.72,3.72,0,0,1,.72,1.22,4.47,4.47,0,0,1,.26,1.53v.71Zm3.52-1.41a1.85,1.85,0,0,0-.56-1.15,1.69,1.69,0,0,0-1.22-.45,1.65,1.65,0,0,0-.63.13,1.41,1.41,0,0,0-.51.35,1.94,1.94,0,0,0-.38.51,2,2,0,0,0-.21.61Z" transform="translate(0.5 0.5)"/><path class="cls-2" d="M185.69,146.39a1.54,1.54,0,0,0,.4,1.14,1.36,1.36,0,0,0,.93.33,2.77,2.77,0,0,0,.49,0,1.37,1.37,0,0,0,.46-.14,1,1,0,0,0,.36-.27.64.64,0,0,0,.14-.42.52.52,0,0,0-.13-.36,1.18,1.18,0,0,0-.36-.29,2.4,2.4,0,0,0-.51-.24l-.61-.22c-.33-.11-.65-.23-1-.36a3.88,3.88,0,0,1-.88-.47,2.12,2.12,0,0,1-.63-.67,1.72,1.72,0,0,1-.25-1,1.91,1.91,0,0,1,.24-1,2.08,2.08,0,0,1,.64-.68,3,3,0,0,1,.93-.4,4.28,4.28,0,0,1,1.09-.14,4.49,4.49,0,0,1,1.18.15,2.69,2.69,0,0,1,1,.47,2.26,2.26,0,0,1,.65.81,3,3,0,0,1,.28,1.15h-1.81a1,1,0,0,0-.43-.81,1.63,1.63,0,0,0-.83-.21,1.46,1.46,0,0,0-.8.18.52.52,0,0,0-.28.47.7.7,0,0,0,.47.6,9.47,9.47,0,0,0,1.08.46l.08,0,1,.37a4,4,0,0,1,.87.46,2.43,2.43,0,0,1,.64.64,1.58,1.58,0,0,1,.24.89A2.4,2.4,0,0,1,190,148a2.21,2.21,0,0,1-.71.78,3.62,3.62,0,0,1-1,.44,5.72,5.72,0,0,1-1.26.14,3.91,3.91,0,0,1-1.2-.18,2.73,2.73,0,0,1-1-.56,2.6,2.6,0,0,1-.69-.93,3.29,3.29,0,0,1-.28-1.32Z" transform="translate(0.5 0.5)"/><path class="cls-2" d="M194.69,139.21v2.17h1.12v1.48h-1.12v4.44a.56.56,0,0,0,.13.44.41.41,0,0,0,.3.12l.29,0,.58-.11v1.45a3.69,3.69,0,0,1-.68.16,4.82,4.82,0,0,1-.62,0,2.69,2.69,0,0,1-.7-.09,1.4,1.4,0,0,1-.57-.29,1.48,1.48,0,0,1-.4-.52,1.9,1.9,0,0,1-.15-.8v-4.82h-1.14v-1.48h1.14v-2.17Z" transform="translate(0.5 0.5)"/><path class="cls-2" d="M110.85,143.08l2.72-4.79h2.11l-3.92,6.53v4.42h-1.87v-4.42c-.31-.51-.62-1-1-1.6l-1-1.67c-.35-.56-.69-1.12-1-1.67l-.94-1.59h2.09Z" transform="translate(0.5 0.5)"/><path class="cls-2" d="M115.41,145.31a5.17,5.17,0,0,1,.24-1.58,3.8,3.8,0,0,1,.7-1.3,3.34,3.34,0,0,1,1.15-.87,3.51,3.51,0,0,1,1.56-.33,3.63,3.63,0,0,1,1.58.33,3.34,3.34,0,0,1,1.15.87,4,4,0,0,1,.71,1.3,5.15,5.15,0,0,1,0,3.17,3.85,3.85,0,0,1-.71,1.29,3.31,3.31,0,0,1-1.15.86,3.78,3.78,0,0,1-1.58.31,3.65,3.65,0,0,1-1.56-.31,3.31,3.31,0,0,1-1.15-.86,3.67,3.67,0,0,1-.7-1.29A5.19,5.19,0,0,1,115.41,145.31Zm1.79,0a3.81,3.81,0,0,0,.12,1,2.38,2.38,0,0,0,.38.8,1.78,1.78,0,0,0,.59.54,1.6,1.6,0,0,0,1.55,0,1.78,1.78,0,0,0,.59-.54,2.58,2.58,0,0,0,.38-.8,3.41,3.41,0,0,0,.14-1,3.52,3.52,0,0,0-.14-1,2.82,2.82,0,0,0-.38-.8,1.82,1.82,0,0,0-.59-.55,1.6,1.6,0,0,0-1.55,0,1.82,1.82,0,0,0-.59.55,2.57,2.57,0,0,0-.38.8A3.93,3.93,0,0,0,117.2,145.31Z" transform="translate(0.5 0.5)"/><path class="cls-2" d="M131.16,149.11h-1.8v-.58a3.4,3.4,0,0,1-1.06.53,3.78,3.78,0,0,1-1.15.18,2.54,2.54,0,0,1-1.87-.67,2.4,2.4,0,0,1-.68-1.8v-5.54h1.82v5.4a1.11,1.11,0,0,0,.25.83,1,1,0,0,0,.7.24,2,2,0,0,0,.77-.15,2.29,2.29,0,0,0,.64-.39,2.1,2.1,0,0,0,.42-.57,1.47,1.47,0,0,0,.16-.67v-4.69h1.8Z" transform="translate(0.5 0.5)"/><path class="cls-2" d="M133.08,141.38h1.8v.36a2.76,2.76,0,0,1,.67-.37,2.28,2.28,0,0,1,.8-.14,2.08,2.08,0,0,1,.39.05,3.1,3.1,0,0,1,.47.14v1.74l-.6-.19-.29-.08a1.38,1.38,0,0,0-.62.14,1.33,1.33,0,0,0-.45.36,1.66,1.66,0,0,0-.27.53,1.89,1.89,0,0,0-.1.63v4.69h-1.8Z" transform="translate(0.5 0.5)"/><path class="cls-2" d="M202.17,141.38H204V142a3.85,3.85,0,0,1,1.07-.54,3.39,3.39,0,0,1,1.13-.19,2.52,2.52,0,0,1,1.88.68,2.46,2.46,0,0,1,.67,1.81v5.52h-1.81v-5.4a1.09,1.09,0,0,0-.25-.82,1,1,0,0,0-.7-.24,2,2,0,0,0-.77.15,2.12,2.12,0,0,0-.63.4,1.72,1.72,0,0,0-.43.57,1.44,1.44,0,0,0-.16.67v4.67h-1.82Z" transform="translate(0.5 0.5)"/><path class="cls-2" d="M212.49,145.79a3.06,3.06,0,0,0,.22.77,3.34,3.34,0,0,0,.41.66,2,2,0,0,0,.54.47,1.41,1.41,0,0,0,.66.17,1.85,1.85,0,0,0,1.79-1.47h1.69a4.19,4.19,0,0,1-.48,1.27,4.1,4.1,0,0,1-.81.94,3.18,3.18,0,0,1-1,.58,3.49,3.49,0,0,1-1.16.2,3.31,3.31,0,0,1-1.53-.34,3.77,3.77,0,0,1-1.18-.91,4.22,4.22,0,0,1-.75-1.33,5,5,0,0,1-.26-1.61,4.38,4.38,0,0,1,.26-1.5,4,4,0,0,1,.75-1.26,3.52,3.52,0,0,1,2.69-1.2,3.57,3.57,0,0,1,1.49.3,3.27,3.27,0,0,1,1.13.8,3.72,3.72,0,0,1,.72,1.22,4.47,4.47,0,0,1,.25,1.53v.71Zm3.52-1.41a1.85,1.85,0,0,0-.56-1.15,1.69,1.69,0,0,0-1.23-.45,1.64,1.64,0,0,0-.62.13,1.41,1.41,0,0,0-.51.35,1.94,1.94,0,0,0-.38.51,2,2,0,0,0-.21.61Z" transform="translate(0.5 0.5)"/><path class="cls-2" d="M221.6,138.46v1.84h-1.81v-1.84Zm0,2.92v7.86h-1.81v-7.86Z" transform="translate(0.5 0.5)"/><path class="cls-2" d="M230.3,149.13a3.39,3.39,0,0,1-.29,1.44,3.18,3.18,0,0,1-.77,1.06,3.35,3.35,0,0,1-1.1.64,3.9,3.9,0,0,1-1.28.21,3.37,3.37,0,0,1-2.05-.66,4.43,4.43,0,0,1-1.4-2.14h1.84a2.48,2.48,0,0,0,.69,1,1.51,1.51,0,0,0,.92.29,1.69,1.69,0,0,0,.63-.13,1.67,1.67,0,0,0,.51-.37,1.75,1.75,0,0,0,.36-.55,1.83,1.83,0,0,0,.13-.71v-.36a2.61,2.61,0,0,1-1.66.59,3.32,3.32,0,0,1-2.61-1.21,4,4,0,0,1-.71-1.29,4.92,4.92,0,0,1-.25-1.6,5.09,5.09,0,0,1,.24-1.59,3.85,3.85,0,0,1,.71-1.29,3.18,3.18,0,0,1,1.09-.87,3.12,3.12,0,0,1,1.42-.32,3.53,3.53,0,0,1,.87.13,2.57,2.57,0,0,1,.9.46v-.44h1.81Zm-1.81-3.93a4.64,4.64,0,0,0-.12-.94,2.59,2.59,0,0,0-.32-.77,1.66,1.66,0,0,0-.5-.52,1.25,1.25,0,0,0-.67-.19,1.4,1.4,0,0,0-.73.2,2,2,0,0,0-.58.54,2.7,2.7,0,0,0-.38.8,3.42,3.42,0,0,0-.13,1,3.54,3.54,0,0,0,.13,1,2.76,2.76,0,0,0,.38.81,2.2,2.2,0,0,0,.58.56,1.4,1.4,0,0,0,.73.2,1.16,1.16,0,0,0,.68-.2,1.73,1.73,0,0,0,.51-.53,3,3,0,0,0,.31-.81,4,4,0,0,0,.11-1Z" transform="translate(0.5 0.5)"/><path class="cls-2" d="M234.27,138.46v3.36a2.72,2.72,0,0,1,.94-.45,4.32,4.32,0,0,1,1.08-.14,3.21,3.21,0,0,1,1.1.19,2.75,2.75,0,0,1,.86.52,2.54,2.54,0,0,1,.57.8,2.3,2.3,0,0,1,.21,1v5.52h-1.81v-5.33a1,1,0,0,0-.36-.87,1.4,1.4,0,0,0-.82-.26,1.68,1.68,0,0,0-.64.14,1.93,1.93,0,0,0-.57.37,2.25,2.25,0,0,0-.41.55,1.57,1.57,0,0,0-.15.68v4.72h-1.82V138.46Z" transform="translate(0.5 0.5)"/><path class="cls-2" d="M241,138.46h1.81v3.41a2.71,2.71,0,0,1,1.69-.64,3.12,3.12,0,0,1,1.47.33,3.06,3.06,0,0,1,1.05.87,4.27,4.27,0,0,1,.64,1.3,5.89,5.89,0,0,1,.21,1.6,5.39,5.39,0,0,1-.22,1.58,4.07,4.07,0,0,1-.65,1.3,3.08,3.08,0,0,1-1.06.87,3.25,3.25,0,0,1-1.47.32,2.61,2.61,0,0,1-.86-.16,3.27,3.27,0,0,1-.8-.44v.44H241Zm1.81,6.87a4,4,0,0,0,.11,1,3,3,0,0,0,.31.81,1.73,1.73,0,0,0,.51.53,1.16,1.16,0,0,0,.68.2,1.2,1.2,0,0,0,.7-.2,1.73,1.73,0,0,0,.51-.53,3,3,0,0,0,.33-.81,4.51,4.51,0,0,0,0-2,3,3,0,0,0-.33-.81,1.69,1.69,0,0,0-.51-.55,1.27,1.27,0,0,0-.7-.2,1.25,1.25,0,0,0-.67.19,1.66,1.66,0,0,0-.5.52,2.59,2.59,0,0,0-.32.77,4.64,4.64,0,0,0-.12.94Z" transform="translate(0.5 0.5)"/><path class="cls-2" d="M249.64,145.31a5.17,5.17,0,0,1,.24-1.58,4,4,0,0,1,.7-1.3,3.43,3.43,0,0,1,1.15-.87,3.51,3.51,0,0,1,1.56-.33,3.63,3.63,0,0,1,1.58.33,3.34,3.34,0,0,1,1.15.87,4,4,0,0,1,.71,1.3,5.15,5.15,0,0,1,0,3.17,3.85,3.85,0,0,1-.71,1.29,3.31,3.31,0,0,1-1.15.86,3.78,3.78,0,0,1-1.58.31,3.65,3.65,0,0,1-1.56-.31,3.41,3.41,0,0,1-1.15-.86,3.83,3.83,0,0,1-.7-1.29A5.19,5.19,0,0,1,249.64,145.31Zm1.79,0a3.81,3.81,0,0,0,.12,1,2.38,2.38,0,0,0,.38.8,1.78,1.78,0,0,0,.59.54,1.6,1.6,0,0,0,1.55,0,1.78,1.78,0,0,0,.59-.54,2.38,2.38,0,0,0,.38-.8,3.41,3.41,0,0,0,.14-1,3.52,3.52,0,0,0-.14-1,2.57,2.57,0,0,0-.38-.8,1.82,1.82,0,0,0-.59-.55,1.6,1.6,0,0,0-1.55,0,1.82,1.82,0,0,0-.59.55,2.57,2.57,0,0,0-.38.8A3.93,3.93,0,0,0,251.43,145.31Z" transform="translate(0.5 0.5)"/><path class="cls-2" d="M258.86,141.38h1.81v.36a2.59,2.59,0,0,1,.67-.37,2.24,2.24,0,0,1,.8-.14,2.09,2.09,0,0,1,.38.05,2.79,2.79,0,0,1,.47.14v1.74c-.24-.08-.44-.15-.6-.19l-.28-.08a1.35,1.35,0,0,0-.62.14,1.33,1.33,0,0,0-.45.36,1.68,1.68,0,0,0-.28.53,2.18,2.18,0,0,0-.09.63v4.69h-1.81Z" transform="translate(0.5 0.5)"/><rect class="cls-2" x="276.58" y="106.2" width="11.2" height="12.19"/><rect class="cls-2" x="82.08" y="106.2" width="11.2" height="12.19"/></svg>